<mxfile host="app.diagrams.net" modified="2021-11-17T07:47:33.533Z" agent="5.0 (Windows NT 10.0; Win64; x64) AppleWebKit/537.36 (KHTML, like Gecko) Chrome/94.0.4606.81 Safari/537.36 OPR/80.0.4170.63" etag="njlkNRjDLpIcj6s5f-z2" version="15.7.1" type="github">
  <diagram id="ALGK_6w9bily_czKKvVn" name="Page-1">
    <mxGraphModel dx="1456" dy="645" grid="1" gridSize="10" guides="1" tooltips="1" connect="1" arrows="1" fold="1" page="1" pageScale="1" pageWidth="827" pageHeight="1169" math="0" shadow="0">
      <root>
        <mxCell id="0" />
        <mxCell id="1" parent="0" />
        <mxCell id="CYoyYTOHA0EDDvnXfknv-79" value="користувач" style="shape=umlActor;verticalLabelPosition=bottom;verticalAlign=top;html=1;outlineConnect=0;" vertex="1" parent="1">
          <mxGeometry x="60" y="290" width="30" height="60" as="geometry" />
        </mxCell>
        <mxCell id="CYoyYTOHA0EDDvnXfknv-80" value="Створити пост" style="ellipse;whiteSpace=wrap;html=1;" vertex="1" parent="1">
          <mxGeometry x="210" y="210" width="120" height="30" as="geometry" />
        </mxCell>
        <mxCell id="CYoyYTOHA0EDDvnXfknv-81" value="" style="endArrow=none;html=1;rounded=0;entryX=0;entryY=0.5;entryDx=0;entryDy=0;" edge="1" parent="1" source="CYoyYTOHA0EDDvnXfknv-79" target="CYoyYTOHA0EDDvnXfknv-80">
          <mxGeometry width="50" height="50" relative="1" as="geometry">
            <mxPoint x="390" y="310" as="sourcePoint" />
            <mxPoint x="440" y="260" as="targetPoint" />
            <Array as="points" />
          </mxGeometry>
        </mxCell>
        <mxCell id="CYoyYTOHA0EDDvnXfknv-82" value="Виставляти історїі" style="ellipse;whiteSpace=wrap;html=1;" vertex="1" parent="1">
          <mxGeometry x="210" y="250" width="120" height="30" as="geometry" />
        </mxCell>
        <mxCell id="CYoyYTOHA0EDDvnXfknv-83" value="Писати коментарі" style="ellipse;whiteSpace=wrap;html=1;" vertex="1" parent="1">
          <mxGeometry x="210" y="290" width="120" height="30" as="geometry" />
        </mxCell>
        <mxCell id="CYoyYTOHA0EDDvnXfknv-84" value="Війти в систему" style="ellipse;whiteSpace=wrap;html=1;" vertex="1" parent="1">
          <mxGeometry x="410" y="40" width="120" height="30" as="geometry" />
        </mxCell>
        <mxCell id="CYoyYTOHA0EDDvnXfknv-85" value="Лайкати дописи" style="ellipse;whiteSpace=wrap;html=1;" vertex="1" parent="1">
          <mxGeometry x="210" y="330" width="120" height="30" as="geometry" />
        </mxCell>
        <mxCell id="CYoyYTOHA0EDDvnXfknv-86" value="Відправляти скаргу" style="ellipse;whiteSpace=wrap;html=1;" vertex="1" parent="1">
          <mxGeometry x="210" y="370" width="120" height="30" as="geometry" />
        </mxCell>
        <mxCell id="CYoyYTOHA0EDDvnXfknv-87" value="Переписуватись з іншими користувачами" style="ellipse;whiteSpace=wrap;html=1;" vertex="1" parent="1">
          <mxGeometry x="210" y="410" width="120" height="60" as="geometry" />
        </mxCell>
        <mxCell id="CYoyYTOHA0EDDvnXfknv-88" value="Підписуватись на інших користувачів" style="ellipse;whiteSpace=wrap;html=1;" vertex="1" parent="1">
          <mxGeometry x="210" y="480" width="120" height="40" as="geometry" />
        </mxCell>
        <mxCell id="CYoyYTOHA0EDDvnXfknv-89" value="Шукати людей" style="ellipse;whiteSpace=wrap;html=1;" vertex="1" parent="1">
          <mxGeometry x="210" y="530" width="120" height="30" as="geometry" />
        </mxCell>
        <mxCell id="CYoyYTOHA0EDDvnXfknv-90" value="Зареєструватись" style="ellipse;whiteSpace=wrap;html=1;" vertex="1" parent="1">
          <mxGeometry x="210" y="80" width="120" height="30" as="geometry" />
        </mxCell>
        <mxCell id="CYoyYTOHA0EDDvnXfknv-91" value="" style="endArrow=none;html=1;rounded=0;entryX=0;entryY=0.5;entryDx=0;entryDy=0;" edge="1" parent="1" target="CYoyYTOHA0EDDvnXfknv-90">
          <mxGeometry width="50" height="50" relative="1" as="geometry">
            <mxPoint x="90" y="310" as="sourcePoint" />
            <mxPoint x="140" y="260" as="targetPoint" />
          </mxGeometry>
        </mxCell>
        <mxCell id="CYoyYTOHA0EDDvnXfknv-92" value="" style="endArrow=none;html=1;rounded=0;entryX=0;entryY=0.5;entryDx=0;entryDy=0;" edge="1" parent="1" target="CYoyYTOHA0EDDvnXfknv-82">
          <mxGeometry width="50" height="50" relative="1" as="geometry">
            <mxPoint x="90" y="310" as="sourcePoint" />
            <mxPoint x="150" y="270" as="targetPoint" />
          </mxGeometry>
        </mxCell>
        <mxCell id="CYoyYTOHA0EDDvnXfknv-93" value="" style="endArrow=none;html=1;rounded=0;entryX=0;entryY=0.5;entryDx=0;entryDy=0;exitX=1;exitY=0.3333333333333333;exitDx=0;exitDy=0;exitPerimeter=0;" edge="1" parent="1" source="CYoyYTOHA0EDDvnXfknv-79" target="CYoyYTOHA0EDDvnXfknv-83">
          <mxGeometry width="50" height="50" relative="1" as="geometry">
            <mxPoint x="120" y="370" as="sourcePoint" />
            <mxPoint x="170" y="320" as="targetPoint" />
          </mxGeometry>
        </mxCell>
        <mxCell id="CYoyYTOHA0EDDvnXfknv-94" value="" style="endArrow=none;html=1;rounded=0;entryX=0;entryY=0.5;entryDx=0;entryDy=0;" edge="1" parent="1" target="CYoyYTOHA0EDDvnXfknv-85">
          <mxGeometry width="50" height="50" relative="1" as="geometry">
            <mxPoint x="90" y="310" as="sourcePoint" />
            <mxPoint x="140" y="330" as="targetPoint" />
          </mxGeometry>
        </mxCell>
        <mxCell id="CYoyYTOHA0EDDvnXfknv-95" value="" style="endArrow=none;html=1;rounded=0;entryX=0;entryY=0.5;entryDx=0;entryDy=0;" edge="1" parent="1" target="CYoyYTOHA0EDDvnXfknv-86">
          <mxGeometry width="50" height="50" relative="1" as="geometry">
            <mxPoint x="90" y="310" as="sourcePoint" />
            <mxPoint x="170" y="360" as="targetPoint" />
          </mxGeometry>
        </mxCell>
        <mxCell id="CYoyYTOHA0EDDvnXfknv-96" value="" style="endArrow=none;html=1;rounded=0;entryX=0;entryY=0.5;entryDx=0;entryDy=0;" edge="1" parent="1" target="CYoyYTOHA0EDDvnXfknv-87">
          <mxGeometry width="50" height="50" relative="1" as="geometry">
            <mxPoint x="90" y="310" as="sourcePoint" />
            <mxPoint x="380" y="340" as="targetPoint" />
          </mxGeometry>
        </mxCell>
        <mxCell id="CYoyYTOHA0EDDvnXfknv-97" value="" style="endArrow=none;html=1;rounded=0;entryX=1;entryY=0.3333333333333333;entryDx=0;entryDy=0;entryPerimeter=0;exitX=0;exitY=0.5;exitDx=0;exitDy=0;" edge="1" parent="1" source="CYoyYTOHA0EDDvnXfknv-88" target="CYoyYTOHA0EDDvnXfknv-79">
          <mxGeometry width="50" height="50" relative="1" as="geometry">
            <mxPoint x="330" y="390" as="sourcePoint" />
            <mxPoint x="380" y="340" as="targetPoint" />
          </mxGeometry>
        </mxCell>
        <mxCell id="CYoyYTOHA0EDDvnXfknv-98" value="" style="endArrow=none;html=1;rounded=0;exitX=0;exitY=0.5;exitDx=0;exitDy=0;" edge="1" parent="1" source="CYoyYTOHA0EDDvnXfknv-89">
          <mxGeometry width="50" height="50" relative="1" as="geometry">
            <mxPoint x="330" y="390" as="sourcePoint" />
            <mxPoint x="90" y="310" as="targetPoint" />
          </mxGeometry>
        </mxCell>
        <mxCell id="CYoyYTOHA0EDDvnXfknv-99" value="" style="endArrow=none;html=1;rounded=0;exitX=1;exitY=0.3333333333333333;exitDx=0;exitDy=0;exitPerimeter=0;entryX=0;entryY=0.5;entryDx=0;entryDy=0;" edge="1" parent="1" source="CYoyYTOHA0EDDvnXfknv-79" target="CYoyYTOHA0EDDvnXfknv-100">
          <mxGeometry width="50" height="50" relative="1" as="geometry">
            <mxPoint x="330" y="360" as="sourcePoint" />
            <mxPoint x="210" y="550" as="targetPoint" />
          </mxGeometry>
        </mxCell>
        <mxCell id="CYoyYTOHA0EDDvnXfknv-100" value="Змінювати дані про себе" style="ellipse;whiteSpace=wrap;html=1;" vertex="1" parent="1">
          <mxGeometry x="210" y="570" width="120" height="50" as="geometry" />
        </mxCell>
        <mxCell id="CYoyYTOHA0EDDvnXfknv-101" value="" style="endArrow=none;dashed=1;html=1;rounded=0;exitX=1;exitY=0.5;exitDx=0;exitDy=0;entryX=0;entryY=0.5;entryDx=0;entryDy=0;" edge="1" parent="1" source="CYoyYTOHA0EDDvnXfknv-90" target="CYoyYTOHA0EDDvnXfknv-84">
          <mxGeometry width="50" height="50" relative="1" as="geometry">
            <mxPoint x="340" y="130" as="sourcePoint" />
            <mxPoint x="390" y="80" as="targetPoint" />
          </mxGeometry>
        </mxCell>
        <mxCell id="CYoyYTOHA0EDDvnXfknv-102" value="&amp;lt;&amp;lt;extend&amp;gt;&amp;gt;" style="text;html=1;align=center;verticalAlign=middle;resizable=0;points=[];autosize=1;strokeColor=none;fillColor=none;rotation=-30;" vertex="1" parent="1">
          <mxGeometry x="320" y="50" width="80" height="20" as="geometry" />
        </mxCell>
        <mxCell id="CYoyYTOHA0EDDvnXfknv-103" value="Змінити пароль" style="ellipse;whiteSpace=wrap;html=1;" vertex="1" parent="1">
          <mxGeometry x="410" y="120" width="120" height="30" as="geometry" />
        </mxCell>
        <mxCell id="CYoyYTOHA0EDDvnXfknv-104" value="" style="endArrow=none;dashed=1;html=1;rounded=0;exitX=1;exitY=0.5;exitDx=0;exitDy=0;entryX=0;entryY=0.5;entryDx=0;entryDy=0;" edge="1" parent="1" source="CYoyYTOHA0EDDvnXfknv-90" target="CYoyYTOHA0EDDvnXfknv-103">
          <mxGeometry width="50" height="50" relative="1" as="geometry">
            <mxPoint x="340" y="155" as="sourcePoint" />
            <mxPoint x="410" y="140" as="targetPoint" />
          </mxGeometry>
        </mxCell>
        <mxCell id="CYoyYTOHA0EDDvnXfknv-105" value="&amp;lt;&amp;lt;extend&amp;gt;&amp;gt;" style="text;html=1;align=center;verticalAlign=middle;resizable=0;points=[];autosize=1;strokeColor=none;fillColor=none;rotation=30;" vertex="1" parent="1">
          <mxGeometry x="340" y="100" width="80" height="20" as="geometry" />
        </mxCell>
        <mxCell id="CYoyYTOHA0EDDvnXfknv-106" value="Загрузити фото" style="ellipse;whiteSpace=wrap;html=1;" vertex="1" parent="1">
          <mxGeometry x="410" y="170" width="120" height="30" as="geometry" />
        </mxCell>
        <mxCell id="CYoyYTOHA0EDDvnXfknv-107" value="Загрузити відео" style="ellipse;whiteSpace=wrap;html=1;" vertex="1" parent="1">
          <mxGeometry x="440" y="210" width="120" height="30" as="geometry" />
        </mxCell>
        <mxCell id="CYoyYTOHA0EDDvnXfknv-108" value="Встановити геолокацію" style="ellipse;whiteSpace=wrap;html=1;" vertex="1" parent="1">
          <mxGeometry x="440" y="270" width="120" height="30" as="geometry" />
        </mxCell>
        <mxCell id="CYoyYTOHA0EDDvnXfknv-109" value="Додати фільтри" style="ellipse;whiteSpace=wrap;html=1;" vertex="1" parent="1">
          <mxGeometry x="440" y="320" width="120" height="30" as="geometry" />
        </mxCell>
        <mxCell id="CYoyYTOHA0EDDvnXfknv-110" value="&amp;lt;&amp;lt;include&amp;gt;&amp;gt;" style="text;html=1;align=center;verticalAlign=middle;resizable=0;points=[];autosize=1;strokeColor=none;fillColor=none;rotation=-30;" vertex="1" parent="1">
          <mxGeometry x="320" y="180" width="80" height="20" as="geometry" />
        </mxCell>
        <mxCell id="CYoyYTOHA0EDDvnXfknv-111" value="&amp;lt;&amp;lt;include&amp;gt;&amp;gt;" style="text;html=1;align=center;verticalAlign=middle;resizable=0;points=[];autosize=1;strokeColor=none;fillColor=none;rotation=0;" vertex="1" parent="1">
          <mxGeometry x="360" y="200" width="80" height="20" as="geometry" />
        </mxCell>
        <mxCell id="CYoyYTOHA0EDDvnXfknv-112" value="&amp;lt;&amp;lt;include&amp;gt;&amp;gt;" style="text;html=1;align=center;verticalAlign=middle;resizable=0;points=[];autosize=1;strokeColor=none;fillColor=none;rotation=30;" vertex="1" parent="1">
          <mxGeometry x="360" y="240" width="80" height="20" as="geometry" />
        </mxCell>
        <mxCell id="CYoyYTOHA0EDDvnXfknv-113" value="&amp;lt;&amp;lt;include&amp;gt;&amp;gt;" style="text;html=1;align=center;verticalAlign=middle;resizable=0;points=[];autosize=1;strokeColor=none;fillColor=none;rotation=45;" vertex="1" parent="1">
          <mxGeometry x="374" y="280" width="80" height="20" as="geometry" />
        </mxCell>
        <mxCell id="CYoyYTOHA0EDDvnXfknv-114" value="" style="endArrow=none;dashed=1;html=1;rounded=0;exitX=1;exitY=0.5;exitDx=0;exitDy=0;entryX=0;entryY=0.5;entryDx=0;entryDy=0;" edge="1" parent="1" source="CYoyYTOHA0EDDvnXfknv-80" target="CYoyYTOHA0EDDvnXfknv-109">
          <mxGeometry width="50" height="50" relative="1" as="geometry">
            <mxPoint x="350" y="390" as="sourcePoint" />
            <mxPoint x="430" y="350" as="targetPoint" />
          </mxGeometry>
        </mxCell>
        <mxCell id="CYoyYTOHA0EDDvnXfknv-115" value="" style="endArrow=none;dashed=1;html=1;rounded=0;exitX=1;exitY=0.5;exitDx=0;exitDy=0;entryX=0;entryY=0.5;entryDx=0;entryDy=0;" edge="1" parent="1" source="CYoyYTOHA0EDDvnXfknv-80" target="CYoyYTOHA0EDDvnXfknv-108">
          <mxGeometry width="50" height="50" relative="1" as="geometry">
            <mxPoint x="340" y="390" as="sourcePoint" />
            <mxPoint x="420" y="350" as="targetPoint" />
          </mxGeometry>
        </mxCell>
        <mxCell id="CYoyYTOHA0EDDvnXfknv-116" value="" style="endArrow=none;dashed=1;html=1;rounded=0;exitX=1;exitY=0.5;exitDx=0;exitDy=0;entryX=0;entryY=0.5;entryDx=0;entryDy=0;" edge="1" parent="1" source="CYoyYTOHA0EDDvnXfknv-80" target="CYoyYTOHA0EDDvnXfknv-107">
          <mxGeometry width="50" height="50" relative="1" as="geometry">
            <mxPoint x="360" y="125" as="sourcePoint" />
            <mxPoint x="440" y="85" as="targetPoint" />
          </mxGeometry>
        </mxCell>
        <mxCell id="CYoyYTOHA0EDDvnXfknv-117" value="" style="endArrow=none;dashed=1;html=1;rounded=0;exitX=1;exitY=0.5;exitDx=0;exitDy=0;entryX=0;entryY=0.5;entryDx=0;entryDy=0;" edge="1" parent="1" source="CYoyYTOHA0EDDvnXfknv-80" target="CYoyYTOHA0EDDvnXfknv-106">
          <mxGeometry width="50" height="50" relative="1" as="geometry">
            <mxPoint x="370" y="135" as="sourcePoint" />
            <mxPoint x="450" y="95" as="targetPoint" />
          </mxGeometry>
        </mxCell>
        <mxCell id="CYoyYTOHA0EDDvnXfknv-118" value="" style="endArrow=none;dashed=1;html=1;rounded=0;exitX=1;exitY=0.5;exitDx=0;exitDy=0;entryX=0;entryY=0.5;entryDx=0;entryDy=0;" edge="1" parent="1" source="CYoyYTOHA0EDDvnXfknv-87" target="CYoyYTOHA0EDDvnXfknv-119">
          <mxGeometry width="50" height="50" relative="1" as="geometry">
            <mxPoint x="355" y="430" as="sourcePoint" />
            <mxPoint x="405" y="380" as="targetPoint" />
          </mxGeometry>
        </mxCell>
        <mxCell id="CYoyYTOHA0EDDvnXfknv-119" value="Надсилати відео" style="ellipse;whiteSpace=wrap;html=1;" vertex="1" parent="1">
          <mxGeometry x="440" y="370" width="120" height="30" as="geometry" />
        </mxCell>
        <mxCell id="CYoyYTOHA0EDDvnXfknv-120" value="Надсилати фотографії" style="ellipse;whiteSpace=wrap;html=1;" vertex="1" parent="1">
          <mxGeometry x="440" y="420" width="120" height="30" as="geometry" />
        </mxCell>
        <mxCell id="CYoyYTOHA0EDDvnXfknv-121" value="Лайкати повідомлення" style="ellipse;whiteSpace=wrap;html=1;" vertex="1" parent="1">
          <mxGeometry x="440" y="470" width="120" height="30" as="geometry" />
        </mxCell>
        <mxCell id="CYoyYTOHA0EDDvnXfknv-122" value="Здійснювати відеовиклик" style="ellipse;whiteSpace=wrap;html=1;" vertex="1" parent="1">
          <mxGeometry x="440" y="510" width="120" height="30" as="geometry" />
        </mxCell>
        <mxCell id="CYoyYTOHA0EDDvnXfknv-123" value="Об&#39;єднувати групи" style="ellipse;whiteSpace=wrap;html=1;" vertex="1" parent="1">
          <mxGeometry x="440" y="580" width="120" height="30" as="geometry" />
        </mxCell>
        <mxCell id="CYoyYTOHA0EDDvnXfknv-124" value="" style="endArrow=none;dashed=1;html=1;rounded=0;exitX=1;exitY=0.5;exitDx=0;exitDy=0;entryX=0;entryY=0.5;entryDx=0;entryDy=0;" edge="1" parent="1" source="CYoyYTOHA0EDDvnXfknv-87" target="CYoyYTOHA0EDDvnXfknv-120">
          <mxGeometry width="50" height="50" relative="1" as="geometry">
            <mxPoint x="340" y="450" as="sourcePoint" />
            <mxPoint x="420" y="395" as="targetPoint" />
          </mxGeometry>
        </mxCell>
        <mxCell id="CYoyYTOHA0EDDvnXfknv-125" value="" style="endArrow=none;dashed=1;html=1;rounded=0;exitX=1;exitY=0.5;exitDx=0;exitDy=0;entryX=0;entryY=0.5;entryDx=0;entryDy=0;" edge="1" parent="1" source="CYoyYTOHA0EDDvnXfknv-87" target="CYoyYTOHA0EDDvnXfknv-121">
          <mxGeometry width="50" height="50" relative="1" as="geometry">
            <mxPoint x="350" y="460" as="sourcePoint" />
            <mxPoint x="430" y="405" as="targetPoint" />
          </mxGeometry>
        </mxCell>
        <mxCell id="CYoyYTOHA0EDDvnXfknv-126" value="" style="endArrow=none;dashed=1;html=1;rounded=0;exitX=1;exitY=0.5;exitDx=0;exitDy=0;entryX=0;entryY=0.5;entryDx=0;entryDy=0;" edge="1" parent="1" source="CYoyYTOHA0EDDvnXfknv-87" target="CYoyYTOHA0EDDvnXfknv-122">
          <mxGeometry width="50" height="50" relative="1" as="geometry">
            <mxPoint x="360" y="470" as="sourcePoint" />
            <mxPoint x="440" y="415" as="targetPoint" />
          </mxGeometry>
        </mxCell>
        <mxCell id="CYoyYTOHA0EDDvnXfknv-127" value="" style="endArrow=none;dashed=1;html=1;rounded=0;exitX=1;exitY=0.5;exitDx=0;exitDy=0;entryX=0;entryY=0.5;entryDx=0;entryDy=0;" edge="1" parent="1" source="CYoyYTOHA0EDDvnXfknv-87" target="CYoyYTOHA0EDDvnXfknv-123">
          <mxGeometry width="50" height="50" relative="1" as="geometry">
            <mxPoint x="370" y="480" as="sourcePoint" />
            <mxPoint x="450" y="425" as="targetPoint" />
          </mxGeometry>
        </mxCell>
        <mxCell id="CYoyYTOHA0EDDvnXfknv-128" value="&amp;lt;&amp;lt;include&amp;gt;&amp;gt;" style="text;html=1;align=center;verticalAlign=middle;resizable=0;points=[];autosize=1;strokeColor=none;fillColor=none;rotation=-30;" vertex="1" parent="1">
          <mxGeometry x="334" y="390" width="80" height="20" as="geometry" />
        </mxCell>
        <mxCell id="CYoyYTOHA0EDDvnXfknv-129" value="&amp;lt;&amp;lt;include&amp;gt;&amp;gt;" style="text;html=1;align=center;verticalAlign=middle;resizable=0;points=[];autosize=1;strokeColor=none;fillColor=none;rotation=0;" vertex="1" parent="1">
          <mxGeometry x="370" y="410" width="80" height="20" as="geometry" />
        </mxCell>
        <mxCell id="CYoyYTOHA0EDDvnXfknv-130" value="&amp;lt;&amp;lt;include&amp;gt;&amp;gt;" style="text;html=1;align=center;verticalAlign=middle;resizable=0;points=[];autosize=1;strokeColor=none;fillColor=none;rotation=15;" vertex="1" parent="1">
          <mxGeometry x="374" y="450" width="80" height="20" as="geometry" />
        </mxCell>
        <mxCell id="CYoyYTOHA0EDDvnXfknv-131" value="&amp;lt;&amp;lt;include&amp;gt;&amp;gt;" style="text;html=1;align=center;verticalAlign=middle;resizable=0;points=[];autosize=1;strokeColor=none;fillColor=none;rotation=30;" vertex="1" parent="1">
          <mxGeometry x="374" y="480" width="80" height="20" as="geometry" />
        </mxCell>
        <mxCell id="CYoyYTOHA0EDDvnXfknv-132" value="&amp;lt;&amp;lt;include&amp;gt;&amp;gt;" style="text;html=1;align=center;verticalAlign=middle;resizable=0;points=[];autosize=1;strokeColor=none;fillColor=none;rotation=60;" vertex="1" parent="1">
          <mxGeometry x="380" y="530" width="80" height="20" as="geometry" />
        </mxCell>
      </root>
    </mxGraphModel>
  </diagram>
</mxfile>
